# xmcd
# Track frame offsets:
# 150
# 11629
# 22897
# 36821
# 48418
# 63770
# 84809
# 98562
# 112295
# 122980
# 137621
# 152355
#
# Disc length: 2235 seconds
# Revision: 0
# Processed by: cddbd v1.5.2PL0 Copyright (c) Steve Scherf et al.
# Submitted via: VisiTrax 2.11.1.266 - For more info visit www.synapsa.com
#
DISCID=8a08b90c
DTITLE=Tommy Cash - Shades Of Black
DYEAR=2007
DGENRE=
TTITLE0=Tommy Cash - Big River
TTITLE1=Tommy Cash - One Song Away
TTITLE2=Tommy Cash - I Still Miss Someone
TTITLE3=Tommy Cash - All I Care About
TTITLE4=Tommy Cash - My BrotherJohnny Cash
TTITLE5=Tommy Cash - I Walk The Line
TTITLE6=Tommy Cash - long Black Veil
TTITLE7=Tommy Cash and Bobby Bare - There Ain´t No Good Gang
TTITLE8=Tommy Cash - There You Go
TTITLE9=Tommy Cash - We´ve All Got Our Heroes
TTITLE10=Tommy Cash - Passin´ Through
TTITLE11=Tommy Cash - The Far Side Banks Of Jordan
EXTD=
EXTT0=
EXTT1=
EXTT2=
EXTT3=
EXTT4=
EXTT5=
EXTT6=
EXTT7=
EXTT8=
EXTT9=
EXTT10=
EXTT11=
PLAYORDER=
